HIERARCHY
ROOT Hips
{
    OFFSET 0.000000 0.000000 0.000000
    CHANNELS 6 Xposition Yposition Zposition Zrotation Xrotation Yrotation
    JOINT Spine
    {
        OFFSET -0.000000 14.517291 0.000000
        CHANNELS 3 Zrotation Xrotation Yrotation
        JOINT Spine1
        {
            OFFSET -0.000000 37.558300 0.000000
            CHANNELS 3 Zrotation Xrotation Yrotation
            JOINT Neck
            {
                OFFSET -0.000000 37.404057 3.400369
                CHANNELS 3 Zrotation Xrotation Yrotation
                JOINT Head
                {
                    OFFSET -0.000000 24.785618 -3.540803
                    CHANNELS 3 Zrotation Xrotation Yrotation
                    End Site
                    {
                        OFFSET -0.000000 35.408028 0.000000
                    }
                }
            }
            JOINT LeftShoulder
            {
                OFFSET 6.992933 33.973492 -0.192664
                CHANNELS 3 Zrotation Xrotation Yrotation
                JOINT LeftArm
                {
                    OFFSET 21.527611 0.000000 0.000000
                    CHANNELS 3 Zrotation Xrotation Yrotation
                    JOINT LeftForeArm
                    {
                        OFFSET 56.353916 0.000000 0.000000
                        CHANNELS 3 Zrotation Xrotation Yrotation
                        JOINT LeftHand
                        {
                            OFFSET 47.774071 0.000000 0.000000
                            CHANNELS 3 Zrotation Xrotation Yrotation
                            End Site
                            {
                                OFFSET 26.556021 0.000000 0.000000
                            }
                        }
                    }
                }
            }
            JOINT RightShoulder
            {
                OFFSET -7.065357 33.973492 -0.192664
                CHANNELS 3 Zrotation Xrotation Yrotation
                JOINT RightArm
                {
                    OFFSET -21.527611 0.000000 0.000000
                    CHANNELS 3 Zrotation Xrotation Yrotation
                    JOINT RightForeArm
                    {
                        OFFSET -56.353916 0.000000 0.000000
                        CHANNELS 3 Zrotation Xrotation Yrotation
                        JOINT RightHand
                        {
                            OFFSET -47.774071 0.000000 0.000000
                            CHANNELS 3 Zrotation Xrotation Yrotation
                            End Site
                            {
                                OFFSET -26.556021 0.000000 0.000000
                            }
                        }
                    }
                }
            }
        }
    }
    JOINT LeftUpLeg
    {
        OFFSET 17.704014 0.000000 0.000000
        CHANNELS 3 Zrotation Xrotation Yrotation
        JOINT LeftLeg
        {
            OFFSET -0.000000 -81.181816 0.000000
            CHANNELS 3 Zrotation Xrotation Yrotation
            JOINT LeftFoot
            {
                OFFSET -0.000000 -62.821102 0.000000
                CHANNELS 3 Zrotation Xrotation Yrotation
                JOINT LeftToeBase
                {
                    OFFSET -0.000000 -11.507608 26.556021
                    CHANNELS 3 Zrotation Xrotation Yrotation
                    End Site
                    {
                        OFFSET -0.000000 0.000000 7.081605
                    }
                }
            }
        }
    }
    JOINT RightUpLeg
    {
        OFFSET -17.704014 0.000000 0.000000
        CHANNELS 3 Zrotation Xrotation Yrotation
        JOINT RightLeg
        {
            OFFSET -0.000000 -81.181816 0.000000
            CHANNELS 3 Zrotation Xrotation Yrotation
            JOINT RightFoot
            {
                OFFSET -0.000000 -62.821102 0.000000
                CHANNELS 3 Zrotation Xrotation Yrotation
                JOINT RightToeBase
                {
                    OFFSET -0.000000 -11.507608 26.556021
                    CHANNELS 3 Zrotation Xrotation Yrotation
                    End Site
                    {
                        OFFSET -0.000000 0.000000 7.081605
                    }
                }
            }
        }
    }
}
MOTION
Frames:    5
Frame Time:    0.008333
13.145769    155.698563    -117.215576    -1.709518    -4.637311    41.895626    0.928641    -4.274336    0.473288    -7.407195    4.540189    0.435993    -5.055155    -0.823177    -24.138945    21.719448    4.300611    -22.258204    7.837678    5.251536    -23.714430    -27.976696    24.956743    -53.134468    -21.893120    11.269688    -98.147522    -0.568969    -14.463997    -7.041472    -17.542078    -3.614789    -0.603892    28.917051    -4.368277    75.385170    24.905636    11.310619    61.155907    13.477695    -1.267938    19.972527    19.082579    -2.127003    0.687322    -13.144488    33.302357    -18.498386    3.115406    -27.822412    43.874069    0.000000    0.000000    0.000000    -16.342852    -18.128473    -12.347754    8.869682    21.532351    -15.192468    4.446964    9.741843    -14.532926    0.000000    0.000000    0.000000    
13.178687    155.706650    -117.191765    -1.712425    -4.647866    41.904049    0.935055    -4.282312    0.449064    -7.423129    4.530825    0.427714    -4.982864    -0.837624    -24.130198    21.655275    4.282204    -22.262486    7.874034    5.256598    -23.715349    -27.990356    24.978697    -53.137699    -21.899546    11.280292    -98.155403    -0.508617    -14.468555    -7.006892    -17.565622    -3.736340    -0.678665    28.870874    -4.664604    75.198509    23.916521    10.331472    61.338409    13.589332    -1.676135    19.969440    19.089100    -2.099282    0.664074    -13.151526    33.287457    -18.509348    3.223536    -27.688843    43.883835    0.000000    0.000000    0.000000    -16.338070    -18.125153    -12.341178    8.866172    21.584557    -14.968925    4.518682    9.687504    -14.771897    0.000000    0.000000    0.000000    
13.210757    155.710999    -117.173454    -1.718189    -4.654546    41.911987    0.935009    -4.281091    0.425442    -7.422054    4.509682    0.418534    -4.932005    -0.876369    -24.126017    21.595537    4.295274    -22.272720    7.897917    5.261493    -23.710663    -28.010368    24.997225    -53.140171    -21.919514    11.306054    -98.157402    -0.448109    -14.471912    -6.988377    -17.595741    -3.872758    -0.767693    28.878719    -5.014893    75.003632    23.033867    9.427827    61.429539    13.779678    -2.007443    20.152651    19.091675    -2.082756    0.654386    -13.149668    33.274342    -18.499851    3.243595    -27.685713    43.884216    0.000000    0.000000    0.000000    -16.336369    -18.108801    -12.338542    8.881016    21.582067    -14.987097    4.496418    9.688415    -14.776827    0.000000    0.000000    0.000000    
13.239566    155.715729    -117.152527    -1.729819    -4.657907    41.916588    0.925899    -4.285122    0.401018    -7.401680    4.486820    0.408333    -4.870002    -0.941388    -24.115421    21.491150    4.324832    -22.284264    7.926208    5.267651    -23.710213    -28.046602    25.012903    -53.129490    -21.904364    11.320829    -98.161072    -0.485399    -14.438392    -6.992886    -17.642759    -3.991736    -0.851447    28.968159    -5.436726    74.834442    22.266401    8.580959    61.398266    14.010567    -2.318746    20.268602    19.099306    -2.078004    0.651757    -13.144698    33.276608    -18.499441    3.227481    -27.698622    43.875423    0.000000    0.000000    0.000000    -16.325474    -18.105995    -12.331744    8.868229    21.596630    -14.992172    4.545598    9.680250    -14.779107    0.000000    0.000000    0.000000    
13.264489    155.717117    -117.140816    -1.738992    -4.659516    41.920769    0.924115    -4.273827    0.377762    -7.399528    4.453192    0.398447    -4.820865    -0.981843    -24.098194    21.436176    4.330173    -22.278440    7.965838    5.276935    -23.704760    -28.065784    25.037624    -53.128220    -21.907351    11.332810    -98.174072    -0.466322    -14.437336    -6.996294    -17.649475    -4.133718    -0.941988    29.030416    -5.848732    74.688118    21.517071    7.716978    61.314880    14.105129    -2.673608    20.354876    19.103016    -2.076255    0.635939    -13.152020    33.275471    -18.496330    3.227957    -27.715639    43.889366    0.000000    0.000000    0.000000    -16.324162    -18.103893    -12.316168    8.877875    21.602894    -15.005322    4.539132    9.677043    -14.788658    0.000000    0.000000    0.000000    
